HIERARCHY
ROOT Hips
{
	OFFSET 0.000000 83.214638 0.000000
	CHANNELS 6 Xposition Yposition Zposition Xrotation Yrotation Zrotation
	JOINT Pelvis
	{
		OFFSET 0.000000 0.000000 0.000000
		CHANNELS 3 Xrotation Yrotation Zrotation
		JOINT LeftUpLeg
		{
			OFFSET 8.479700 -4.795502 -0.379100
			CHANNELS 3 Xrotation Yrotation Zrotation
			JOINT LeftLeg
			{
				OFFSET 0.024144 -32.555107 0.112900
				CHANNELS 3 Xrotation Yrotation Zrotation
				JOINT LeftFoot
				{
					OFFSET -0.024144 -32.638630 -3.012600
					CHANNELS 3 Xrotation Yrotation Zrotation
					JOINT LeftToeBase
					{
						OFFSET 0.970200 -13.225400 11.864200
						CHANNELS 3 Xrotation Yrotation Zrotation
						End Site
						{
							OFFSET 0.000000 12.319262 0.000000
						}
					}
					JOINT LFootTongue
					{
						OFFSET 1.142400 -1.059800 6.665200
						CHANNELS 3 Xrotation Yrotation Zrotation
						End Site
						{
							OFFSET 0.000000 12.319262 0.000000
						}
					}
				}
				JOINT LeftPantLeg
				{
					OFFSET 0.918482 -16.533964 -2.284700
					CHANNELS 3 Xrotation Yrotation Zrotation
					End Site
					{
						OFFSET 0.350399 24.744368 0.000000
					}
				}
			}
		}
		JOINT RightUpLeg
		{
			OFFSET -8.479700 -4.795502 -0.379100
			CHANNELS 3 Xrotation Yrotation Zrotation
			JOINT RightLeg
			{
				OFFSET -0.023144 -32.555092 0.112900
				CHANNELS 3 Xrotation Yrotation Zrotation
				JOINT RightFoot
				{
					OFFSET 0.023144 -32.638641 -3.012700
					CHANNELS 3 Xrotation Yrotation Zrotation
					JOINT RightToeBase
					{
						OFFSET -0.970200 -13.225400 11.864200
						CHANNELS 3 Xrotation Yrotation Zrotation
						End Site
						{
							OFFSET 0.000000 12.319244 0.000000
						}
					}
					JOINT RFootTongue
					{
						OFFSET -1.142200 -1.059800 6.665200
						CHANNELS 3 Xrotation Yrotation Zrotation
						End Site
						{
							OFFSET 0.000000 12.319243 0.000000
						}
					}
				}
				JOINT RightPantLeg
				{
					OFFSET -0.919482 -16.533978 -2.284800
					CHANNELS 3 Xrotation Yrotation Zrotation
					End Site
					{
						OFFSET -0.350400 24.744419 0.000000
					}
				}
			}
		}
	}
	JOINT Spine
	{
		OFFSET 0.000000 7.722000 1.166200
		CHANNELS 3 Xrotation Yrotation Zrotation
		JOINT Spine1
		{
			OFFSET 0.000000 12.024101 0.248800
			CHANNELS 3 Xrotation Yrotation Zrotation
			JOINT Spine2
			{
				OFFSET 0.000000 11.502998 -0.491200
				CHANNELS 3 Xrotation Yrotation Zrotation
				JOINT Neck
				{
					OFFSET 0.000000 18.430702 -3.123100
					CHANNELS 3 Xrotation Yrotation Zrotation
					JOINT Head
					{
						OFFSET 0.000000 9.051102 1.034000
						CHANNELS 3 Xrotation Yrotation Zrotation
						JOINT HairB
						{
							OFFSET 0.208400 24.786102 24.822300
							CHANNELS 3 Xrotation Yrotation Zrotation
							End Site
							{
								OFFSET 0.000000 32.263779 0.000000
							}
						}
						JOINT HairA
						{
							OFFSET -7.081100 24.428299 23.196600
							CHANNELS 3 Xrotation Yrotation Zrotation
							End Site
							{
								OFFSET 0.000000 32.263779 0.000000
							}
						}
						JOINT Hat
						{
							OFFSET 16.728800 15.048294 -15.439601
							CHANNELS 3 Xrotation Yrotation Zrotation
							End Site
							{
								OFFSET 0.000000 32.263779 0.000000
							}
						}
					}
				}
				JOINT LeftShoulder
				{
					OFFSET 6.197800 13.665199 -4.064700
					CHANNELS 3 Xrotation Yrotation Zrotation
					JOINT LeftArm
					{
						OFFSET 7.778100 -0.187103 -1.709300
						CHANNELS 3 Xrotation Yrotation Zrotation
						JOINT LeftForeArm
						{
							OFFSET 22.049376 0.000000 0.000000
							CHANNELS 3 Xrotation Yrotation Zrotation
							JOINT LeftHand
							{
								OFFSET 23.009392 0.000000 0.000000
								CHANNELS 3 Xrotation Yrotation Zrotation
								JOINT LeftHandThumb1
								{
									OFFSET 3.507191 -2.063065 3.133727
									CHANNELS 3 Xrotation Yrotation Zrotation
									JOINT LeftHandThumb2
									{
										OFFSET 3.101337 -1.790558 1.790558
										CHANNELS 3 Xrotation Yrotation Zrotation
										JOINT LeftHandThumb3
										{
											OFFSET 3.058640 -1.765907 1.765906
											CHANNELS 3 Xrotation Yrotation Zrotation
											End Site
											{
												OFFSET -0.415260 3.926476 -0.049563
											}
										}
									}
								}
								JOINT LeftHandIndex1
								{
									OFFSET 11.334419 -0.901459 3.706815
									CHANNELS 3 Xrotation Yrotation Zrotation
									JOINT LeftHandIndex2
									{
										OFFSET 3.283112 0.000000 0.000000
										CHANNELS 3 Xrotation Yrotation Zrotation
										JOINT LeftHandIndex3
										{
											OFFSET 3.323853 0.000000 0.000000
											CHANNELS 3 Xrotation Yrotation Zrotation
											End Site
											{
												OFFSET -1.135597 3.097809 0.402452
											}
										}
									}
								}
								JOINT LeftHandMiddle1
								{
									OFFSET 11.335861 0.000000 0.000000
									CHANNELS 3 Xrotation Yrotation Zrotation
									JOINT LeftHandMiddle2
									{
										OFFSET 3.410492 0.000000 0.000000
										CHANNELS 3 Xrotation Yrotation Zrotation
										JOINT LeftHandMiddle3
										{
											OFFSET 3.312172 0.000000 0.000000
											CHANNELS 3 Xrotation Yrotation Zrotation
											End Site
											{
												OFFSET -1.150200 3.080154 0.400270
											}
										}
									}
								}
								JOINT LeftHandRing1
								{
									OFFSET 11.514786 -0.013176 -3.003090
									CHANNELS 3 Xrotation Yrotation Zrotation
									JOINT LeftHandRing2
									{
										OFFSET 3.053307 0.000000 0.000000
										CHANNELS 3 Xrotation Yrotation Zrotation
										JOINT LeftHandRing3
										{
											OFFSET 3.295807 0.000000 0.000000
											CHANNELS 3 Xrotation Yrotation Zrotation
											End Site
											{
												OFFSET -1.281006 3.013344 0.375733
											}
										}
									}
								}
								JOINT LeftHandPinky1
								{
									OFFSET 10.518692 -0.960396 -5.730441
									CHANNELS 3 Xrotation Yrotation Zrotation
									JOINT LeftHandPinky2
									{
										OFFSET 2.861649 0.000000 0.000000
										CHANNELS 3 Xrotation Yrotation Zrotation
										JOINT LeftHandPinky3
										{
											OFFSET 2.863380 0.000000 0.000000
											CHANNELS 3 Xrotation Yrotation Zrotation
											End Site
											{
												OFFSET -0.843597 2.711159 0.369971
											}
										}
									}
								}
							}
							JOINT LSleeve
							{
								OFFSET 6.676277 -0.344902 -1.011730
								CHANNELS 3 Xrotation Yrotation Zrotation
								End Site
								{
									OFFSET 0.000000 14.885353 0.000000
								}
							}
						}
					}
				}
				JOINT RightShoulder
				{
					OFFSET -6.197800 13.665199 -4.064700
					CHANNELS 3 Xrotation Yrotation Zrotation
					JOINT RightArm
					{
						OFFSET -7.778100 -0.187103 -1.709300
						CHANNELS 3 Xrotation Yrotation Zrotation
						JOINT RightForeArm
						{
							OFFSET -22.049376 0.000000 0.000000
							CHANNELS 3 Xrotation Yrotation Zrotation
							JOINT RightHand
							{
								OFFSET -23.009392 0.000000 0.000000
								CHANNELS 3 Xrotation Yrotation Zrotation
								JOINT RightHandThumb1
								{
									OFFSET -3.507191 -2.063065 3.133727
									CHANNELS 3 Xrotation Yrotation Zrotation
									JOINT RightHandThumb2
									{
										OFFSET -3.101337 -1.790558 1.790558
										CHANNELS 3 Xrotation Yrotation Zrotation
										JOINT RightHandThumb3
										{
											OFFSET -3.058640 -1.765907 1.765906
											CHANNELS 3 Xrotation Yrotation Zrotation
											End Site
											{
												OFFSET 0.415260 3.926476 -0.049563
											}
										}
									}
								}
								JOINT RightHandIndex1
								{
									OFFSET -11.334419 -0.901459 3.706815
									CHANNELS 3 Xrotation Yrotation Zrotation
									JOINT RightHandIndex2
									{
										OFFSET -3.283112 0.000000 0.000000
										CHANNELS 3 Xrotation Yrotation Zrotation
										JOINT RightHandIndex3
										{
											OFFSET -3.323853 0.000000 0.000000
											CHANNELS 3 Xrotation Yrotation Zrotation
											End Site
											{
												OFFSET 1.135597 3.097809 0.402452
											}
										}
									}
								}
								JOINT RightHandMiddle1
								{
									OFFSET -11.335861 0.000000 0.000000
									CHANNELS 3 Xrotation Yrotation Zrotation
									JOINT RightHandMiddle2
									{
										OFFSET -3.410492 0.000000 0.000000
										CHANNELS 3 Xrotation Yrotation Zrotation
										JOINT RightHandMiddle3
										{
											OFFSET -3.312172 0.000000 0.000000
											CHANNELS 3 Xrotation Yrotation Zrotation
											End Site
											{
												OFFSET 1.150200 3.080154 0.400270
											}
										}
									}
								}
								JOINT RightHandRing1
								{
									OFFSET -11.514786 -0.013176 -3.003090
									CHANNELS 3 Xrotation Yrotation Zrotation
									JOINT RightHandRing2
									{
										OFFSET -3.053307 0.000000 0.000000
										CHANNELS 3 Xrotation Yrotation Zrotation
										JOINT RightHandRing3
										{
											OFFSET -3.295807 0.000000 0.000000
											CHANNELS 3 Xrotation Yrotation Zrotation
											End Site
											{
												OFFSET 1.281006 3.013344 0.375733
											}
										}
									}
								}
								JOINT RightHandPinky1
								{
									OFFSET -10.518692 -0.960396 -5.730441
									CHANNELS 3 Xrotation Yrotation Zrotation
									JOINT RightHandPinky2
									{
										OFFSET -2.861649 0.000000 0.000000
										CHANNELS 3 Xrotation Yrotation Zrotation
										JOINT RightHandPinky3
										{
											OFFSET -2.863380 0.000000 0.000000
											CHANNELS 3 Xrotation Yrotation Zrotation
											End Site
											{
												OFFSET 0.843597 2.711159 0.369971
											}
										}
									}
								}
							}
							JOINT RSleeve
							{
								OFFSET -6.676277 -0.344902 -1.011730
								CHANNELS 3 Xrotation Yrotation Zrotation
								End Site
								{
									OFFSET 0.000000 14.885353 0.000000
								}
							}
						}
					}
				}
				JOINT Backpack
				{
					OFFSET 0.000000 -2.471497 36.677502
					CHANNELS 3 Xrotation Yrotation Zrotation
					End Site
					{
						OFFSET 0.000000 20.427315 0.000000
					}
				}
				JOINT Hood
				{
					OFFSET 0.000000 18.754097 -10.431000
					CHANNELS 3 Xrotation Yrotation Zrotation
					JOINT Hood1
					{
						OFFSET 0.000000 -5.011002 -7.685901
						CHANNELS 3 Xrotation Yrotation Zrotation
						End Site
						{
							OFFSET 0.000000 9.175140 0.000000
						}
					}
				}
				JOINT LHoodieString
				{
					OFFSET 5.250500 16.397697 3.089900
					CHANNELS 3 Xrotation Yrotation Zrotation
					JOINT LHoodieString1
					{
						OFFSET 0.257700 -6.364304 3.694600
						CHANNELS 3 Xrotation Yrotation Zrotation
						JOINT LHoodieString2
						{
							OFFSET 0.000000 -9.643799 2.679100
							CHANNELS 3 Xrotation Yrotation Zrotation
							End Site
							{
								OFFSET 0.000000 10.009018 0.000000
							}
						}
					}
				}
				JOINT RHoodieString
				{
					OFFSET -5.250500 16.397697 3.089900
					CHANNELS 3 Xrotation Yrotation Zrotation
					JOINT RHoodieString1
					{
						OFFSET -0.257700 -6.364304 3.694600
						CHANNELS 3 Xrotation Yrotation Zrotation
						JOINT RHoodieString2
						{
							OFFSET 0.000000 -9.643799 2.679100
							CHANNELS 3 Xrotation Yrotation Zrotation
							End Site
							{
								OFFSET 0.000000 10.009018 0.000000
							}
						}
					}
				}
			}
			JOINT LBackpack_Strap
			{
				OFFSET 15.223200 -7.719803 -6.610900
				CHANNELS 3 Xrotation Yrotation Zrotation
				End Site
				{
					OFFSET 0.000000 16.040596 0.000000
				}
			}
			JOINT RBackpack_Strap
			{
				OFFSET -15.223000 -7.719803 -6.610900
				CHANNELS 3 Xrotation Yrotation Zrotation
				End Site
				{
					OFFSET 0.000000 16.040596 0.000000
				}
			}
		}
	}
	JOINT BoyFacialAnim_Joint
	{
		OFFSET 1.000000 -82.208099 -1.550900
		CHANNELS 3 Xrotation Yrotation Zrotation
		End Site
		{
			OFFSET 0.000000 30.012791 0.000000
		}
	}
}
MOTION
Frames: 4
Frame Time: 0.033333
0.536117 73.715691 73.690704 -190.484919 -536.824018 181.599594 0.000001 0.000000 -0.000000 -22.898938 10.674376 -1.006477 60.170237 10.696713 -6.765199 -25.418117 14.124863 15.346259 -0.000000 -0.000002 0.000000 -0.000000 -0.000002 0.000000 -0.000001 -0.000001 0.000000 -22.633531 -7.070529 -5.370562 59.602150 -7.487190 -1.925519 -27.119278 0.054397 -0.320526 0.000000 0.000003 0.000000 0.000000 0.000003 0.000000 -0.000000 -0.000002 0.000000 5.919862 0.434983 -7.570986 -0.408332 0.087795 1.915302 -0.411902 0.100857 1.913420 -5.916259 -1.275002 -1.071339 4.350491 -7.901817 1.361908 0.000000 -0.000000 -0.000000 0.000000 -0.000000 -0.000000 0.000000 -0.000000 -0.000000 0.589849 -3.441162 -14.374598 -27.762077 -6.972468 -7.266100 0.000018 -43.753717 0.000018 20.459844 7.730082 13.278085 -1.681370 11.015586 7.244361 4.543300 15.300735 1.297911 -0.000000 -0.000001 0.000002 0.025882 -0.597698 4.959038 0.003652 0.224799 -1.863077 -0.000004 -0.000004 -0.000001 0.000994 -0.117323 0.972356 0.020035 0.525926 -4.362447 0.000000 -0.000001 0.000000 0.008760 0.347947 -2.884534 0.081991 1.061547 -8.832422 -0.000000 -0.000002 -0.000001 0.557499 4.905733 -6.847406 0.199695 -2.393793 -14.410559 0.000000 -0.000001 0.000001 0.000002 -0.000002 -0.000002 0.564099 7.652854 10.378372 2.402888 6.673367 10.511995 0.000007 30.079149 -0.000009 6.144251 6.837436 -26.642765 -2.125591 -14.557382 -8.330925 5.614189 -19.660534 -0.960117 0.000000 0.000003 0.000000 0.019732 0.524596 -4.308720 0.014241 -0.445691 3.659815 -0.000002 0.000003 0.000002 0.004154 0.240882 -1.976974 0.024048 -0.578929 4.756070 -0.000000 -0.000003 -0.000001 0.000006 0.008822 -0.072258 0.064685 -0.948157 7.805075 -0.000001 0.000004 -0.000001 0.003389 -0.217666 1.786475 0.159600 -1.484151 12.274699 -0.000001 -0.000002 0.000003 0.000001 0.000001 0.000000 -0.000000 -0.000000 0.000000 -0.000000 -0.000000 0.000000 -0.000000 -0.000000 0.000000 -0.000000 -0.000000 0.000000 -0.000000 -0.000000 0.000000 0.000000 -0.000000 0.000000 -0.000000 -0.000000 0.000000 -0.000000 -0.000000 0.000000 0.000000 -0.000000 0.000000 -0.000000 -0.000000 -0.000000 -0.000000 -0.000000 -0.000000 0.000001 0.000000 -0.000000 
0.544413 73.375046 73.846069 -189.892687 -537.864939 178.428433 0.000001 -0.000000 -0.000000 -25.425603 10.992957 2.927604 62.923958 10.676661 -5.500774 -26.466199 11.947553 14.095776 -0.000001 -0.000001 0.000001 -0.000001 -0.000001 0.000001 -0.000001 0.000002 -0.000001 -22.439050 -6.715083 -1.579191 59.466441 -8.490876 -0.614025 -27.059902 -1.022861 -1.265664 -0.000000 -0.000000 0.000000 -0.000000 -0.000000 0.000000 -0.000000 0.000001 0.000000 5.540022 0.167496 -2.476405 -0.349689 0.021970 1.216923 -0.350728 0.031391 1.216330 -6.290109 -1.301897 -1.221045 4.337218 -8.269433 1.249955 0.000000 -0.000000 -0.000000 0.000000 -0.000000 -0.000000 0.000000 -0.000000 -0.000000 0.565778 -3.977955 -14.398269 -27.625405 -7.467950 -7.434311 -0.000005 -40.157797 -0.000009 22.278330 5.158540 15.761218 -1.681367 11.015588 7.244363 4.543300 15.300734 1.297911 -0.000001 -0.000001 -0.000001 0.030388 -0.647551 5.373935 0.003490 0.219614 -1.820198 -0.000002 -0.000001 -0.000000 0.001608 -0.149080 1.235383 0.019242 0.515436 -4.275285 0.000001 0.000001 0.000002 0.007757 0.327401 -2.714050 0.080631 1.052789 -8.758868 0.000002 -0.000003 -0.000001 0.547312 4.892546 -6.728130 0.198051 -2.400200 -14.355786 -0.000000 0.000001 -0.000000 -0.000002 0.000002 -0.000001 0.574768 6.962367 10.112659 2.086560 7.621470 10.021625 -0.000005 29.728521 0.000004 5.198918 6.324333 -25.346542 -2.125593 -14.557382 -8.330926 5.614188 -19.660541 -0.960111 0.000000 -0.000003 0.000001 0.011807 0.405937 -3.332889 0.018470 -0.507499 4.168174 0.000000 0.000002 0.000002 0.001958 0.165535 -1.358461 0.028442 -0.629531 5.173098 0.000000 0.000000 -0.000000 0.000118 -0.040005 0.328358 0.068644 -0.976666 8.041260 -0.000002 0.000003 0.000001 0.004531 -0.251603 2.065011 0.161165 -1.491324 12.335059 0.000000 0.000001 0.000002 0.000000 -0.000003 -0.000001 -0.000001 0.000000 0.000000 -0.000001 0.000000 0.000000 -0.000001 0.000000 0.000000 -0.000001 0.000000 0.000000 -0.000001 0.000000 0.000000 -0.000000 0.000000 0.000000 -0.000001 0.000000 0.000000 -0.000001 0.000000 0.000000 -0.000000 0.000000 0.000000 -0.000000 0.000000 -0.000000 -0.000000 0.000000 -0.000000 0.000001 -0.000000 -0.000000 
0.568068 73.036003 73.952904 -189.746904 -539.202891 174.636899 0.000000 0.000000 -0.000000 -27.853018 11.000698 7.518400 65.735721 10.643688 -3.895477 -27.481618 9.528835 12.430491 -0.000000 0.000001 -0.000000 -0.000000 0.000001 -0.000000 0.000000 0.000001 0.000000 -21.640975 -6.449692 2.741428 58.986688 -8.910280 0.981944 -26.869664 -2.929635 -2.687241 -0.000000 -0.000002 -0.000000 -0.000000 -0.000002 -0.000000 0.000001 0.000001 -0.000000 5.789790 -0.191703 3.222272 -0.354336 -0.063103 0.445660 -0.355556 -0.056574 0.446789 -6.684274 -1.343036 -1.308445 4.301981 -8.600937 1.014403 -0.000001 0.000001 0.000000 -0.000001 0.000001 0.000000 -0.000001 0.000001 0.000000 0.533211 -4.785890 -14.235977 -27.446123 -7.920158 -7.649379 0.000002 -35.673084 0.000001 24.668082 2.196912 19.145259 -1.681370 11.015582 7.244365 4.543301 15.300737 1.297910 -0.000000 -0.000002 0.000000 0.039271 -0.735913 6.109798 0.003121 0.207856 -1.722529 -0.000001 -0.000001 -0.000004 0.002930 -0.201218 1.667530 0.017860 0.496701 -4.119459 0.000000 0.000003 -0.000003 0.006520 0.300270 -2.488981 0.078598 1.039509 -8.647540 0.000001 0.000001 -0.000000 0.541045 4.884404 -6.654660 0.195676 -2.409483 -14.276465 -0.000000 0.000004 0.000002 0.000001 0.000000 -0.000002 0.576331 6.486832 10.087182 1.636211 8.212054 9.141904 -0.000005 29.519504 0.000016 4.131345 5.575413 -24.110067 -2.125592 -14.557382 -8.330927 5.614188 -19.660536 -0.960114 -0.000001 -0.000001 0.000000 0.006716 0.306186 -2.513343 0.023633 -0.573994 4.715344 0.000001 -0.000001 0.000003 0.000557 0.088275 -0.724448 0.033386 -0.681965 5.605051 -0.000002 0.000001 -0.000002 0.000902 -0.112436 0.922585 0.073161 -1.008035 8.301366 0.000001 0.000002 0.000001 0.008080 -0.335909 2.757195 0.161714 -1.493804 12.356111 0.000001 0.000000 0.000000 -0.000001 -0.000003 -0.000001 0.000000 0.000000 -0.000000 0.000000 0.000000 -0.000000 0.000000 0.000000 -0.000000 0.000000 0.000000 -0.000000 0.000000 0.000000 -0.000000 0.000000 0.000000 -0.000000 0.000000 0.000000 -0.000000 0.000000 0.000000 -0.000000 0.000000 0.000000 -0.000000 0.000000 0.000000 -0.000000 0.000000 0.000000 -0.000000 0.000000 0.000000 -0.000000 
0.601163 72.701828 74.025070 -190.060259 -540.690233 171.121551 -0.000000 0.000000 0.000000 -29.713126 10.653226 11.704093 68.211460 10.609317 -2.304362 -28.341740 7.378761 10.709778 0.000000 -0.000001 -0.000000 0.000000 -0.000001 -0.000000 -0.000003 0.000001 -0.000000 -20.475500 -6.351317 6.559184 58.496390 -9.069759 2.547547 -26.796676 -4.775302 -4.121045 -0.000000 0.000000 0.000000 -0.000000 0.000000 0.000000 -0.000001 -0.000001 0.000000 6.655398 -0.605454 8.399984 -0.436652 -0.160549 -0.194678 -0.440387 -0.154639 -0.191280 -7.048610 -1.348160 -1.337229 4.036960 -8.658081 0.679633 -0.000001 -0.000001 -0.000000 -0.000001 -0.000001 -0.000000 -0.000001 -0.000001 -0.000000 0.503115 -5.652174 -14.109105 -27.148042 -8.343735 -7.790814 -0.000018 -30.939244 -0.000006 27.006699 -0.647625 23.178544 -1.681370 11.015581 7.244356 4.543298 15.300735 1.297909 -0.000001 -0.000003 0.000002 0.055248 -0.872268 7.247702 0.002419 0.182841 -1.515308 0.000003 0.000001 -0.000005 0.005709 -0.280980 2.328893 0.015723 0.465953 -3.864046 -0.000001 -0.000006 -0.000001 0.004900 0.260169 -2.156388 0.075942 1.021903 -8.499922 0.000000 -0.000001 -0.000001 0.533734 4.874879 -6.568629 0.193915 -2.416426 -14.217151 -0.000002 -0.000002 0.000001 -0.000002 -0.000003 -0.000004 0.572041 6.364406 10.348085 1.053620 8.231126 7.848967 0.000002 29.749524 -0.000002 3.081611 4.679044 -23.051364 -2.125590 -14.557377 -8.330926 5.614186 -19.660539 -0.960116 -0.000002 0.000001 -0.000001 0.003383 0.217295 -1.783268 0.028772 -0.633237 5.203406 0.000001 0.000002 0.000000 0.000006 0.007287 -0.059711 0.038748 -0.734551 6.039003 0.000002 -0.000002 0.000003 0.002989 -0.204298 1.676767 0.079287 -1.049205 8.643069 -0.000000 0.000002 0.000004 0.015141 -0.459527 3.773544 0.165357 -1.510371 12.495186 -0.000000 -0.000006 -0.000001 -0.000001 0.000001 -0.000000 -0.000000 0.000000 -0.000000 -0.000000 0.000000 -0.000000 -0.000000 0.000000 -0.000000 -0.000000 0.000000 -0.000000 -0.000000 0.000000 0.000000 0.000000 -0.000000 -0.000000 -0.000000 0.000000 -0.000000 -0.000000 0.000000 0.000000 0.000000 -0.000000 -0.000000 -0.000000 0.000000 -0.000000 -0.000000 0.000000 -0.000000 -0.000000 0.000000 0.000000 
